<svg width="580" height="126" viewBox="0 0 580 126" fill="none" xmlns="http://www.w3.org/2000/svg">
  <path fill-rule="evenodd" clip-rule="evenodd"
    d="M579.343 23.6293C578.795 22.6452 578.139 21.9872 577.157 21.5465C576.283 20.9971 575.404 20.7798 573 20.7798H283.575C281.171 20.7798 280.292 20.9971 279.418 21.4378C278.436 21.9872 277.78 22.6452 277.34 23.6293C276.792 24.5047 276.575 25.3861 276.575 27.7949V118.985C276.575 121.394 276.792 122.275 277.232 123.151C277.78 124.135 278.436 124.793 279.418 125.233C280.292 125.783 281.171 126 283.575 126H573C575.404 126 576.283 125.783 577.157 125.342C578.139 124.793 578.795 124.135 579.235 123.151C579.783 122.275 580 121.394 580 118.985V27.7949C580 25.3861 579.783 24.5047 579.343 23.6293Z"
    fill="#DCE0E6" />
  <path
    d="M278.545 75.1436C278.545 75.1436 271.653 80.5166 265.641 79.8586C259.623 79.3092 261.484 65.7197 261.484 65.7197C261.484 65.7197 262.797 53.3316 259.297 52.3476C255.689 51.2488 251.315 55.6378 251.315 55.6378C251.315 55.6378 245.845 61.5541 243.224 69.3359L242.568 69.5533C242.568 69.5533 243.333 56.0725 242.459 52.8909C241.694 51.3575 235.242 51.4662 234.146 54.207C233.049 56.9479 227.802 76.019 227.585 83.9095C227.585 83.9095 217.302 92.6753 208.446 93.9914C199.476 95.4162 197.398 89.8258 197.398 89.8258C197.398 89.8258 221.567 83.1428 220.694 63.7396C219.929 44.3364 201.223 51.5748 199.145 53.1083C197.066 54.6417 186.126 61.2161 182.958 79.5205L182.741 82.8107C182.741 82.8107 173.337 89.1678 168.084 90.8099C168.084 90.8099 182.741 66.257 164.909 55.0764C159.878 52.0095 155.613 54.859 152.878 57.2678C151.348 58.9099 174.536 33.5904 169.174 10.903C166.656 0.0603998 161.294 -1.14098 156.264 0.718442C152.204 2.13112 148.637 4.67877 145.98 8.05954C145.98 8.05954 136.137 22.1984 133.95 43.135C131.763 64.1803 128.48 89.6085 128.48 89.6085C128.48 89.6085 123.775 94.1001 119.51 94.4321C115.245 94.6494 117.106 81.718 117.106 81.718C117.106 81.718 120.389 61.9888 120.275 58.6986C119.95 55.2997 119.727 53.549 115.901 52.3416C111.961 51.2428 107.696 56.1751 107.696 56.1751C107.696 56.1751 96.4307 73.2721 95.4427 75.9043L94.8945 76.997L94.2379 76.2303C94.2379 76.2303 102.22 52.8849 94.5632 52.5529C87.0148 52.2269 82.0929 60.884 82.0929 60.884C82.0929 60.884 73.3457 75.3489 73.0143 76.997L72.4661 76.339C72.4661 76.339 75.9662 59.4593 75.3096 55.2937C74.5445 51.1281 70.7191 52.0035 70.7191 52.0035C70.7191 52.0035 65.6888 51.3454 64.3755 54.6356C63.0622 57.8112 58.3572 79.0798 57.815 85.8715C57.815 85.8715 45.3448 94.6374 37.0313 94.8607C28.9346 94.8607 29.8142 89.6024 29.8142 89.6024C29.8142 89.6024 59.785 79.4118 51.6884 59.0246C47.9714 53.875 43.7062 52.2268 37.5795 52.3416C31.5612 52.3416 24.0188 56.1811 19.2054 67.0298C17.3078 71.4972 16.0909 76.2303 15.5969 81.06C15.5969 81.06 10.3497 82.1587 7.50023 79.7439C4.65676 77.4438 3.12659 79.7439 3.12659 79.7439C3.12659 79.7439 -1.68681 85.9923 3.12659 87.8577C7.17491 89.2342 11.3497 90.188 15.5969 90.7072C16.2535 93.9974 18.3319 99.6965 24.2357 104.188C33.0974 110.986 50.1582 103.53 50.1582 103.53L57.1584 99.5817C57.1584 99.5817 57.3753 106.047 62.52 107.038C67.5503 107.913 69.7371 107.038 78.5988 85.3342C83.846 74.3709 84.1773 74.9203 84.1773 74.9203C84.7255 74.8116 80.7856 95.9655 82.3158 101.665C83.846 107.364 90.6293 106.706 90.6293 106.706C90.6293 106.706 94.2379 107.472 97.1898 96.9496C100.142 86.5356 105.937 75.0289 105.937 75.0289C106.594 75.0289 104.076 96.6236 107.907 103.53C111.624 110.436 121.468 105.83 121.468 105.83C121.468 105.83 128.359 102.323 129.45 101.339C129.45 101.339 137.655 108.245 149.137 107.038C174.843 101.888 184.03 94.9815 184.03 94.9815C184.03 94.9815 188.403 106.271 202.079 107.37C217.718 108.468 226.248 98.6037 226.248 98.6037C226.248 98.6037 226.248 105.069 231.718 107.37C237.08 109.561 240.688 96.8469 240.688 96.8469L249.875 71.6361C250.749 71.6361 251.189 88.0751 260.159 90.7072C269.237 93.3394 280.942 84.5675 280.942 84.5675C280.942 84.5675 283.786 83.0341 283.346 78.2105C282.798 73.4955 278.533 75.2523 278.533 75.2523V75.1436H278.545ZM41.2001 63.3049C44.3688 66.3717 43.17 72.9522 37.1518 77.1178C31.1335 81.2833 28.4045 80.408 28.4045 80.408C28.7298 66.3778 38.0313 60.1294 41.2001 63.3109V63.3049ZM159.107 14.4226C161.077 25.1626 141.39 56.9479 141.39 56.9479C141.715 49.8241 148.715 25.712 148.715 25.712C148.715 25.712 157.029 3.79132 159.107 14.4226ZM139.637 95.5309C139.637 95.5309 138.107 90.3812 142.48 75.8017C146.854 61.1134 157.246 66.8124 157.246 66.8124C157.246 66.8124 164.355 72.2941 158.776 86.8737C153.198 101.562 139.637 95.6395 139.637 95.6395V95.5309ZM199.572 67.0358C204.494 58.0466 208.32 62.8702 208.32 62.8702C208.32 62.8702 212.476 67.4765 207.663 74.1596C202.958 80.9573 196.072 80.5166 196.072 80.5166C196.072 80.5166 194.759 75.8017 199.572 66.9272V67.0358Z"
    fill="#E04E39" />
  <path
    d="M248.14 102.987V101.345H250.11L250.436 101.671L250.544 102.111C250.544 102.552 250.436 102.769 250.213 102.878L249.231 102.987H248.134H248.14ZM246.827 100.246V106.82H248.14V103.971H248.905L250.544 106.82H251.857L250.11 103.971C250.327 103.971 250.55 103.971 250.767 103.753L251.315 103.536L251.755 102.987V102.22C251.755 101.562 251.646 101.012 251.207 100.686C250.628 100.403 249.99 100.252 249.345 100.246H246.827ZM244.749 103.536C244.749 102.878 244.857 102.329 245.188 101.671C245.604 100.656 246.387 99.8353 247.375 99.3704C247.929 99.141 248.526 99.0263 249.128 99.0444C250.267 99.0203 251.369 99.4549 252.189 100.252C253.044 101.127 253.52 102.31 253.502 103.542C253.502 104.768 253.026 105.939 252.189 106.832C251.393 107.677 250.285 108.154 249.128 108.148C247.972 108.13 246.875 107.659 246.068 106.832C245.2 105.963 244.724 104.774 244.755 103.542L244.749 103.536ZM243.218 103.536C243.17 105.142 243.809 106.699 244.965 107.81C245.514 108.251 246.17 108.686 246.935 108.909C247.996 109.307 249.14 109.422 250.255 109.229C251.369 109.036 252.411 108.547 253.279 107.816C255.092 106.144 255.622 103.488 254.592 101.242C253.972 99.8051 252.785 98.6942 251.309 98.1751C249.899 97.6438 248.345 97.6438 246.935 98.1751C245.496 98.6882 244.315 99.7507 243.652 101.133C243.321 101.9 243.212 102.667 243.212 103.542L243.218 103.536Z"
    fill="#E04E39" />
  <path
    d="M324.552 49.0454L322.655 58.8738H332.378L331.113 66.6375H321.305L317.745 85.6543C317.347 88.0329 317.51 89.6931 318.143 90.5685C318.853 91.4378 320.118 91.8363 322.016 91.8363C323.914 91.8363 325.492 91.6008 326.763 91.2024L325.42 98.6521C323.92 99.2075 321.781 99.5215 319.173 99.5215C311.028 99.5215 307.552 96.032 309.052 87.242L312.847 66.6375H305.811L307.233 58.8738H314.269L316.088 49.0454H324.546H324.552Z"
    fill="#42474F" />
  <path
    d="M370.885 62.991C374.126 66.3174 375.789 70.5192 375.789 75.6688C375.789 82.4847 373.415 88.1898 368.752 92.8625C364.09 97.5352 358.397 99.8353 351.752 99.8353C346.457 99.8353 342.107 98.169 338.866 94.9211C335.625 91.5947 333.962 87.3929 333.962 82.2432C333.962 75.3489 336.336 69.6438 340.999 64.9711C345.661 60.2984 351.354 57.9983 358.077 57.9983C363.373 57.9983 367.644 59.6645 370.885 62.991ZM346.926 70.5977C344.161 73.7672 342.734 77.492 342.734 81.7723C342.734 87.8758 346.372 92.0716 352.378 92.0716C356.409 92.0716 359.891 90.4899 362.734 87.3144C365.584 84.0664 367.005 80.3415 367.005 76.1397C367.005 70.0362 363.288 65.762 357.36 65.762C353.246 65.762 349.77 67.3437 346.92 70.5977H346.926Z"
    fill="#42474F" />
  <path
    d="M418.326 62.991C421.567 66.3174 423.23 70.5192 423.23 75.6688C423.23 82.4847 420.857 88.1898 416.194 92.8625C411.531 97.5352 405.838 99.8353 399.193 99.8353C393.898 99.8353 389.548 98.169 386.301 94.9211C383.06 91.5947 381.397 87.3929 381.397 82.2432C381.397 75.3489 383.771 69.6438 388.434 64.9711C393.097 60.2984 398.796 57.9983 405.513 57.9983C410.808 57.9983 415.079 59.6645 418.32 62.991H418.326ZM394.368 70.5977C391.603 73.7672 390.175 77.492 390.175 81.7723C390.175 87.8758 393.814 92.0716 399.82 92.0716C403.85 92.0716 407.332 90.4899 410.175 87.3144C413.025 84.0664 414.447 80.3415 414.447 76.1397C414.447 70.0362 410.73 65.762 404.802 65.762C400.687 65.762 397.211 67.3437 394.362 70.5977H394.368Z"
    fill="#42474F" />
  <path d="M446.628 41.1187L436.429 98.966H428.05L438.249 41.1187H446.628Z" fill="#42474F" />
  <path
    d="M463.707 58.8676L456.671 98.9659H448.291L455.327 58.8676H463.707ZM460.701 52.1302C457.773 52.1302 455.797 49.9146 456.195 47.0591C456.592 43.9681 459.593 41.511 462.52 41.511C465.448 41.511 467.424 43.6481 467.027 46.5821C466.629 49.6731 463.785 52.1302 460.701 52.1302Z"
    fill="#42474F" />
  <path
    d="M504.901 72.9762L500.395 98.9659H492.015L496.287 74.6364C497.317 69.0099 495.732 66.2388 491.461 66.2388C486.479 66.2388 481.973 70.1207 480.786 77.015L476.912 98.9659H468.533L475.569 58.8676H482.925L482.605 64.0172C484.816 60.7692 489.485 57.9922 494.546 57.9922C503.004 57.9922 506.564 63.8542 504.901 72.9702V72.9762Z"
    fill="#42474F" />
  <path
    d="M545.385 64.8143L546.963 58.8738H554.319L547.282 99.0506C545.306 110.225 537.005 116.878 525.3 116.878C515.101 116.878 508.456 112.284 508.377 102.22H516.679C516.836 106.893 519.92 109.193 526.011 109.193C532.969 109.193 537.872 104.991 539.059 98.3382L540.089 93.424C537.324 96.672 532.264 99.0506 526.33 99.0506C521.348 99.0506 517.396 97.3059 514.625 93.8225C511.86 90.3331 510.829 85.8173 511.384 80.3538C511.938 74.0933 514.311 68.8652 518.342 64.5064C522.372 60.1476 527.354 58.0105 533.21 58.0105C539.613 58.0105 543.565 61.1015 545.385 64.8264V64.8143ZM524.354 70.2839C521.745 73.0549 520.324 76.4659 520.083 80.3477C519.685 86.9221 523.089 91.0454 529.017 91.0454C532.101 91.0454 534.945 90.0131 537.553 87.9544C540.162 85.8173 541.824 82.9618 542.535 79.2369L542.77 77.6552C543.957 70.2839 539.842 66.0096 533.595 66.0096C530.035 66.0096 526.95 67.4344 524.342 70.2899L524.354 70.2839Z"
    fill="#42474F" />
</svg>
